<svg width="44" height="44" viewBox="0 0 44 44" fill="none" xmlns="http://www.w3.org/2000/svg">
<rect width="44" height="44" rx="22" fill="#F1F5F9"/>
<path d="M16.0028 15.1251C15.985 14.7255 16.0472 14.3264 16.1859 13.9512C16.3245 13.576 16.5368 13.2324 16.8102 12.9405C17.0836 12.6485 17.4127 12.4142 17.778 12.2513C18.1433 12.0884 18.5374 12.0002 18.9373 11.9919C19.3372 11.9835 19.7347 12.0552 20.1065 12.2028C20.4783 12.3503 20.8168 12.5707 21.1021 12.851C21.3874 13.1313 21.6139 13.4658 21.768 13.8348C21.9222 14.2039 22.001 14.6001 21.9998 15.0001V28M16.0028 15.1251C15.415 15.2762 14.8693 15.5591 14.4071 15.9524C13.9448 16.3456 13.5781 16.8389 13.3347 17.3949C13.0913 17.9509 12.9776 18.5549 13.0022 19.1614C13.0268 19.7678 13.1891 20.3606 13.4768 20.8951M16.0028 15.1251C16.0226 15.6088 16.1593 16.0805 16.4009 16.5M13.4768 20.8951C12.971 21.306 12.5733 21.8343 12.3182 22.434C12.0631 23.0337 11.9584 23.6866 12.0132 24.336C12.068 24.9854 12.2806 25.6116 12.6326 26.1601C12.9846 26.7085 13.4653 27.1627 14.0328 27.4831M13.4768 20.8951C13.6598 20.7461 13.8558 20.6145 14.0621 20.5M14.0328 27.4831C13.9627 28.0253 14.0046 28.5761 14.1557 29.1016C14.3069 29.627 14.5641 30.1159 14.9116 30.538C15.2591 30.9601 15.6894 31.3065 16.176 31.5558C16.6627 31.8051 17.1952 31.952 17.7408 31.9874C18.2864 32.0228 18.8335 31.946 19.3482 31.7617C19.863 31.5774 20.3345 31.2895 20.7336 30.9158C21.1327 30.5421 21.451 30.0906 21.6688 29.5891C21.8866 29.0876 21.9992 28.5468 21.9998 28M14.0328 27.4831C14.6331 27.8216 15.311 28.0002 16.0002 27.9999M21.9998 28L28 28C28.5304 28 29.0391 28.2107 29.4142 28.5858C29.7893 28.9609 30 29.4696 30 30V31M19 23C19.8396 22.7047 20.5727 22.167 21.1067 21.455C21.6407 20.743 21.9515 19.8887 22 19M22 23H26M22 18H30M26 18V15C26 14.4696 26.2107 13.9609 26.5858 13.5858C26.9609 13.2107 27.4696 13 28 13M26.5 23C26.5 23.2761 26.2761 23.5 26 23.5C25.7239 23.5 25.5 23.2761 25.5 23C25.5 22.7239 25.7239 22.5 26 22.5C26.2761 22.5 26.5 22.7239 26.5 23ZM28.5 13C28.5 13.2761 28.2761 13.5 28 13.5C27.7239 13.5 27.5 13.2761 27.5 13C27.5 12.7239 27.7239 12.5 28 12.5C28.2761 12.5 28.5 12.7239 28.5 13ZM30.5 31C30.5 31.2761 30.2761 31.5 30 31.5C29.7239 31.5 29.5 31.2761 29.5 31C29.5 30.7239 29.7239 30.5 30 30.5C30.2761 30.5 30.5 30.7239 30.5 31ZM30.5 18C30.5 18.2761 30.2761 18.5 30 18.5C29.7239 18.5 29.5 18.2761 29.5 18C29.5 17.7239 29.7239 17.5 30 17.5C30.2761 17.5 30.5 17.7239 30.5 18Z" stroke="#020617" stroke-width="2" stroke-linecap="round" stroke-linejoin="round"/>
</svg>
